<svg id="图层_1" data-name="图层 1" xmlns="http://www.w3.org/2000/svg" viewBox="0 0 81.49 81.49"><defs><style>.cls-1{fill:#fff;}.cls-2{fill:#e0e0e0;}.cls-3{fill:none;}.cls-4{fill:#5883b2;}.cls-5{fill:#ed7474;}</style></defs><title>未标题-5</title><path class="cls-1" d="M-50.3,300.92a40.65,40.65,0,0,0-25-18.67,40.74,40.74,0,0,0-49.53,29.43,40.62,40.62,0,0,0,4.46,30.86,40.65,40.65,0,0,0,25,18.67,40.74,40.74,0,0,0,49.53-29.43A40.62,40.62,0,0,0-50.3,300.92Z" transform="translate(126.07 -280.99)"/><line class="cls-1" x1="73.56" y1="16.59" x2="73.55" y2="16.6"/><path class="cls-2" d="M-53.59,330.3a8.46,8.46,0,0,0-3.61-.88,2.6,2.6,0,0,1-2.62-3,25.78,25.78,0,0,0,.43-4.68A25.92,25.92,0,0,0-76.63,297.3,2.57,2.57,0,0,1-78,293.6a8.47,8.47,0,0,0,.94-5.81A8.47,8.47,0,0,0-84.31,281a8.46,8.46,0,0,0-9.46,8.4,8.44,8.44,0,0,0,1.09,4.14A2.59,2.59,0,0,1-94,297.3a25.92,25.92,0,0,0-17.24,24.43,25.78,25.78,0,0,0,.42,4.68,2.59,2.59,0,0,1-2.61,3,8.46,8.46,0,0,0-3.61.88,8.56,8.56,0,0,0-3.68,11.59,8.47,8.47,0,0,0,11.67,3.3,8.49,8.49,0,0,0,3-3,2.58,2.58,0,0,1,3.9-.69,25.79,25.79,0,0,0,16.78,6.17,25.8,25.8,0,0,0,16.79-6.17,2.58,2.58,0,0,1,3.9.69,8.41,8.41,0,0,0,3,3,8.45,8.45,0,0,0,11.66-3.3A8.55,8.55,0,0,0-53.59,330.3Z" transform="translate(126.07 -280.99)"/><line class="cls-3" x1="14.82" y1="40.74" x2="66.68" y2="40.74"/><path class="cls-4" d="M-65.45,322.08a3.1,3.1,0,0,1,3.09,3.51,23.23,23.23,0,0,1-23,19.71,23.22,23.22,0,0,1-23-19.71,3.1,3.1,0,0,1,3.09-3.51Z" transform="translate(126.07 -280.99)"/><path class="cls-5" d="M-91.7,320.67a1,1,0,0,1-1-.75c-1.67-6.57-1.53-10,.46-11.21a3.64,3.64,0,0,1,2.92-.11,2.18,2.18,0,0,0,1.39.11c.27-.16,1.49-1.34-.45-9a1,1,0,0,1,.72-1.22,1,1,0,0,1,1.21.73c1.67,6.57,1.53,10-.45,11.21a3.64,3.64,0,0,1-2.92.11c-.57-.15-1.11-.29-1.4-.11s-1.49,1.33.46,9a1,1,0,0,1-.73,1.21A1,1,0,0,1-91.7,320.67Z" transform="translate(126.07 -280.99)"/><path class="cls-5" d="M-82.14,320.67a1,1,0,0,1-1-.75c-1.27-5-1.13-7.67.46-8.62a2.93,2.93,0,0,1,2.36-.11c.32.08.72.19.85.11s1-.67-.46-6.41a1,1,0,0,1,.72-1.22,1,1,0,0,1,1.22.73c1.27,5,1.13,7.67-.46,8.62a3,3,0,0,1-2.37.11c-.31-.09-.71-.19-.84-.11s-1,.67.46,6.41a1,1,0,0,1-.73,1.21A1,1,0,0,1-82.14,320.67Z" transform="translate(126.07 -280.99)"/><path class="cls-1" d="M-104.9,324a1.37,1.37,0,0,0,0,2.73A1.37,1.37,0,0,0-104.9,324Z" transform="translate(126.07 -280.99)"/><path class="cls-1" d="M-100.88,331.47a9.07,9.07,0,0,1-1.33-2.54,1.37,1.37,0,0,0-2.61.84,11.57,11.57,0,0,0,1.64,3.18,1.4,1.4,0,0,0,1.89.41A1.38,1.38,0,0,0-100.88,331.47Z" transform="translate(126.07 -280.99)"/></svg>